# xmcd
#
# Track frame offsets: 
#        150
#        14312
#        27265
#        60860
#        76895
#        86467
#        103002
#        120195
#        141737
#        155185
#
# Disc length: 2322 seconds
#
# Revision: 0
# Processed by: cddbd v1.5.2PL0 Copyright (c) Steve Scherf et al.
# Submitted via: ExactAudioCopyFreeDBPlugin 1.0
#
DISCID=7509100a
DTITLE=The Joneses - Keepin' Up With The Joneses
DYEAR=1974
DGENRE=Soul
TTITLE0=I Can't See What You See In Me
TTITLE1=Fire
TTITLE2=Our Love Song
TTITLE3=Hey Babe (Is The Gettin' Still Good?) Part 1
TTITLE4=Hey Babe (Is The Gettin' Still Good?) Part 2
TTITLE5=Sugar Pie Guy (Part 1)
TTITLE6=Sugar Pie Guy (Part 2)
TTITLE7=I Promise You
TTITLE8=Baby Don't Do It
TTITLE9=Please Let Me Stay
EXTD=
EXTT0=
EXTT1=
EXTT2=
EXTT3=
EXTT4=
EXTT5=
EXTT6=
EXTT7=
EXTT8=
EXTT9=
PLAYORDER=
